HIERARCHY
ROOT hip
{
	OFFSET 0.000000 0.000000 0.000000
	CHANNELS 6 Xposition Yposition Zposition Xrotation Zrotation Yrotation 
	JOINT abdomen
	{
		OFFSET 0.000000 3.422050 0.000000
		CHANNELS 3 Xrotation Zrotation Yrotation 
		JOINT chest
		{
			OFFSET 0.000000 8.486693 -0.684411
			CHANNELS 3 Xrotation Zrotation Yrotation 
			JOINT neck
			{
				OFFSET 0.000000 10.266162 -0.273764
				CHANNELS 3 Xrotation Zrotation Yrotation 
				JOINT head
				{
					OFFSET 0.000000 3.148285 0.000000
					CHANNELS 3 Xrotation Zrotation Yrotation 
					End Site
					{
						OFFSET 0.000000 3.148289 0.000000
					}
				}
			}
			JOINT lCollar
			{
				OFFSET 3.422053 6.707223 -0.821293
				CHANNELS 3 Yrotation Zrotation Xrotation 
				JOINT lShldr
				{
					OFFSET 3.285171 0.000000 0.000000
					CHANNELS 3 Zrotation Yrotation Xrotation 
					JOINT lForeArm
					{
						OFFSET 10.129278 0.000000 0.000000
						CHANNELS 3 Yrotation Zrotation Xrotation 
						JOINT lHand
						{
							OFFSET 8.486692 0.000000 0.000000
							CHANNELS 3 Zrotation Yrotation Xrotation 
							End Site
							{
								OFFSET 4.106464 0.000000 0.000000
							}
						}
					}
				}
			}
			JOINT rCollar
			{
				OFFSET -3.558935 6.707223 -0.821293
				CHANNELS 3 Yrotation Zrotation Xrotation 
				JOINT rShldr
				{
					OFFSET -3.148289 0.000000 0.000000
					CHANNELS 3 Zrotation Yrotation Xrotation 
					JOINT rForeArm
					{
						OFFSET -10.266159 0.000000 0.000000
						CHANNELS 3 Yrotation Zrotation Xrotation 
						JOINT rHand
						{
							OFFSET -8.349810 0.000000 0.000000
							CHANNELS 3 Zrotation Yrotation Xrotation 
							End Site
							{
								OFFSET -4.106464 0.000000 0.000000
							}
						}
					}
				}
			}
		}
	}
	JOINT lThigh
	{
		OFFSET 5.338403 -1.642589 1.368821
		CHANNELS 3 Xrotation Zrotation Yrotation 
		JOINT lShin
		{
			OFFSET -2.053232 -20.121670 0.000000
			CHANNELS 3 Xrotation Zrotation Yrotation 
			JOINT lFoot
			{
				OFFSET 0.000000 -19.300380 -1.231939
				CHANNELS 3 Xrotation Yrotation Zrotation 
				End Site
				{
					OFFSET 0.000000 -2.463878 4.653993
				}
			}
		}
	}
	JOINT rThigh
	{
		OFFSET -5.338403 -1.642589 1.368821
		CHANNELS 3 Xrotation Zrotation Yrotation 
		JOINT rShin
		{
			OFFSET 2.053232 -20.121670 0.000000
			CHANNELS 3 Xrotation Zrotation Yrotation 
			JOINT rFoot
			{
				OFFSET 0.000000 -19.300380 -1.231939
				CHANNELS 3 Xrotation Yrotation Zrotation 
				End Site
				{
					OFFSET 0.000000 -2.463878 4.653993
				}
			}
		}
	}
}
MOTION
Frames: 13
Frame Time: 0.050000
0.000000 43.528500 0.000000 0.000000 0.000000 0.000000 0.000000 0.000000 0.000000 0.000000 0.000000 0.000000 0.000000 0.000000 0.000000 0.000000 0.000000 0.000000 0.000000 0.000000 0.000000 0.000000 0.000000 0.000000 0.000000 0.000000 0.000000 0.000000 0.000000 0.000000 0.000000 0.000000 0.000000 0.000000 0.000000 0.000000 0.000000 0.000000 0.000000 0.000000 0.000000 0.000000 0.000000 0.000000 0.000000 0.000000 0.000000 0.000000 0.000000 0.000000 0.000000 0.000000 0.000000 0.000000 0.000000 0.000000 0.000000 0.000000 0.000000 0.000000 
-24.315269 9.961708 -6.268803 3.500231 -90.000000 0.000000 -5.333263 -0.010006 -0.214836 10.450065 0.218087 -1.059920 52.998886 0.000000 0.000000 -82.000397 0.000000 0.000000 7.688118 -16.843988 -0.729055 -2.601353 -73.482864 2.978662 -35.633446 -4.411113 -17.109320 -13.350858 -30.106833 -41.119617 -7.691682 16.840492 -0.728764 2.590756 73.478653 2.970572 35.629189 4.408376 -17.108063 13.348408 30.102129 -41.120235 -79.240517 3.247466 -13.750834 50.280079 -12.621840 19.346153 50.324444 -18.333824 21.373552 -99.234306 -61.055580 30.956474 76.232201 80.465630 -3.962656 50.737453 27.201626 -11.286664 
-24.522758 9.811060 -5.900960 3.500231 -90.000000 0.000000 -5.333263 -0.010006 -0.214836 9.298945 0.218134 -1.059952 50.265064 0.000000 0.000000 -79.193069 0.000000 0.000000 9.385876 -16.782137 0.104056 -2.475323 -74.014435 2.826209 -38.376991 -4.613008 -17.329908 -12.953809 -28.151398 -41.897404 -9.743675 16.772072 -0.054073 2.387290 73.850349 2.753888 37.734398 4.559719 -17.276358 13.723865 29.121294 -41.607769 -80.142555 3.050271 -13.587002 52.527256 -12.179454 18.651237 49.021309 -18.332651 21.169521 -100.999870 -62.016266 32.542099 76.232208 80.465652 -3.962673 50.737453 27.201626 -11.286664 
-24.730247 9.660411 -5.533117 3.500230 -90.000000 0.000000 -5.333263 -0.010006 -0.214836 8.146544 0.218180 -1.059985 47.513657 0.000000 0.000000 -76.366669 0.000000 0.000000 11.085822 -16.696468 0.936504 -2.339725 -74.545982 2.664215 -41.139874 -4.805344 -17.561531 -12.592031 -26.184370 -42.649239 -11.800560 16.680241 0.619546 2.173962 74.221809 2.527352 39.848415 4.705329 -17.450813 14.105771 28.142021 -42.098667 -81.045692 2.855533 -13.419990 54.774639 -11.708772 17.972860 47.716492 -18.327063 20.965307 -102.882660 -62.953609 34.245445 76.232178 80.465614 -3.962652 50.737453 27.201626 -11.286664 
-24.937737 9.509763 -5.165275 3.500231 -90.000000 0.000000 -5.333263 -0.010006 -0.214836 6.993089 0.218225 -1.060019 44.747696 0.000000 0.000000 -73.524437 0.000000 0.000000 12.786672 -16.586971 1.767095 -2.193550 -75.077568 2.491673 -43.918999 -4.987259 -17.803558 -12.263444 -24.207443 -43.377502 -13.860607 16.564987 1.290729 1.950073 74.593094 2.290267 41.969852 4.844841 -17.631145 14.494109 27.164650 -42.593060 -81.949814 2.663330 -13.249846 57.020252 -11.210675 17.312687 46.410324 -18.317045 20.761061 -104.891479 -63.864597 36.075348 76.232201 80.465630 -3.962656 50.737453 27.201626 -11.286664 
-25.145224 9.359114 -4.797431 3.500231 -90.000000 0.000000 -5.333263 -0.010006 -0.214836 5.838815 0.218270 -1.060054 41.970272 0.000000 0.000000 -70.669815 0.000000 0.000000 14.487152 -16.453705 2.594640 -2.035632 -75.609108 2.307416 -46.711208 -5.157947 -18.055283 -11.966201 -22.222332 -44.084427 -15.922079 16.426390 1.958114 1.714852 74.964157 2.041859 44.097279 4.977921 -17.817024 14.888844 26.189495 -43.091007 -82.854782 2.473742 -13.076628 59.262184 -10.686185 16.672285 45.103210 -18.302597 20.556957 -107.035454 -64.746017 38.040913 76.232224 80.465637 -3.962646 50.737453 27.201626 -11.286664 
-25.352713 9.208466 -4.429589 3.500231 -90.000000 0.000000 -5.333263 -0.010006 -0.214836 4.683955 0.218314 -1.060090 39.184650 0.000000 0.000000 -67.806252 0.000000 0.000000 16.185999 -16.296804 3.417961 -1.864629 -76.140541 2.110101 -49.513195 -5.316668 -18.315908 -11.698632 -20.230726 -44.772041 -17.983236 16.264620 2.620350 1.467451 75.334984 1.781282 46.229225 5.104243 -18.008106 15.289950 25.216879 -43.592602 -83.760513 2.286849 -12.900399 61.498566 -10.136443 16.053110 43.795490 -18.283724 20.353148 -109.323456 -65.594223 40.151035 76.232201 80.465630 -3.962656 50.737446 27.201624 -11.286663 
-25.560202 9.057817 -4.061746 3.500231 -90.000000 0.000000 -5.333263 -0.010006 -0.214836 3.528742 0.218357 -1.060126 36.394070 0.000000 0.000000 -64.937317 0.000000 0.000000 17.881952 -16.116453 4.235896 -1.678988 -76.671844 1.898177 -52.321621 -5.462756 -18.584572 -11.459246 -18.234310 -45.442226 -20.042366 16.079947 3.276113 1.206935 75.705452 1.507601 48.364204 5.223512 -18.204018 15.697408 24.247149 -44.097935 -84.666893 2.102726 -12.721222 63.727627 -9.562714 15.456524 42.487534 -18.260427 20.149796 -111.764137 -66.405388 42.414341 76.232201 80.465630 -3.962656 50.737453 27.201626 -11.286664 
-25.767691 8.907168 -3.693903 3.500231 -90.000000 0.000000 -5.333263 -0.010006 -0.214836 2.373410 0.218400 -1.060164 33.601822 0.000000 0.000000 -62.066570 0.000000 0.000000 19.573790 -15.912920 5.047310 -1.476904 -77.203041 1.669837 -55.133030 -5.595635 -18.860331 -11.246696 -16.234743 -46.096733 -22.097765 15.872721 3.924107 0.932282 76.075699 1.219793 50.500721 5.335468 -18.404364 16.111183 23.280605 -44.607063 -85.573792 1.921446 -12.539160 65.947708 -8.966368 14.883749 41.179707 -18.232725 19.947063 -114.365211 -67.175316 44.838547 76.232201 80.465630 -3.962656 50.737453 27.201626 -11.286664 
-25.975180 8.756519 -3.326061 3.500231 -90.000000 0.000000 -5.333263 -0.010006 -0.214836 1.218198 0.218442 -1.060202 30.811239 0.000000 0.000000 -59.197620 0.000000 0.000000 21.260309 -15.686534 5.851098 -1.256254 -77.734001 1.422959 -57.943993 -5.714824 -19.142204 -11.059793 -14.233679 -46.737160 -24.147768 15.643382 4.563079 0.642347 76.445534 0.916714 52.637253 5.439872 -18.608725 16.531265 22.317602 -45.120094 -86.481125 1.743082 -12.354279 68.157196 -8.348863 14.335881 39.872375 -18.200642 19.745106 -117.132950 -67.899452 47.429935 76.232201 80.465645 -3.962669 50.737453 27.201626 -11.286664 
-26.182669 8.605871 -2.958218 3.500231 -90.000000 0.000000 -5.333263 -0.010006 -0.214836 0.063337 0.218483 -1.060241 28.025608 0.000000 0.000000 -56.334068 0.000000 0.000000 22.940346 -15.437684 6.646191 -1.014544 -78.264694 1.155049 -60.751038 -5.819934 -19.429146 -10.897464 -12.232751 -47.365055 -26.190771 15.392455 5.191827 0.335872 76.815002 0.597106 54.772289 5.536521 -18.816669 16.957619 21.358450 -45.637062 -87.388763 1.567702 -12.166654 70.354607 -7.711746 13.813895 38.565891 -18.164202 19.544083 -120.071724 -68.573074 50.192860 76.232201 80.465630 -3.962656 50.737461 27.201630 -11.286665 
-26.390156 8.455222 -2.590375 3.500231 -90.000000 0.000000 -5.333263 -0.010006 -0.214836 -1.090938 0.218523 -1.060282 25.248207 0.000000 0.000000 -53.479435 0.000000 0.000000 24.612782 -15.166830 7.431566 -0.748807 -78.795082 0.863140 -63.550724 -5.910685 -19.720098 -10.758755 -10.233559 -47.981815 -28.225203 15.120544 5.809208 0.011453 77.184036 0.259564 56.904335 5.625245 -19.027760 17.390224 20.403482 -46.158035 -88.296577 1.395376 -11.976352 72.538551 -7.056636 13.318624 37.260639 -18.123446 19.344158 -123.183037 -69.191284 53.128834 76.232201 80.465630 -3.962656 50.737453 27.201626 -11.286664 
-26.597645 8.304574 -2.222532 3.500231 -90.000000 0.000000 -5.333263 -0.010006 -0.214836 -2.244392 0.218563 -1.060322 22.482237 0.000000 0.000000 -50.637234 0.000000 0.000000 26.276533 -14.874471 8.206244 -0.455498 -79.325058 0.543686 -66.339645 -5.986901 -20.013971 -10.642824 -8.237685 -48.588802 -30.249556 14.828327 6.414143 -0.332472 77.552551 -0.097474 59.031872 5.705904 -19.241531 17.829054 19.453018 -46.683075 -89.204468 1.226167 -11.783451 74.707756 -6.385197 12.850760 35.956959 -18.078415 19.145473 -126.464584 -69.748962 56.235550 76.232201 80.465630 -3.962656 50.737453 27.201626 -11.286664 
